<svg width="512" height="512" viewBox="0 0 512 512" fill="none" xmlns="http://www.w3.org/2000/svg">
<path d="M468.279 158.661C478.066 158.661 486 166.595 486 176.382V314.456C486 400.499 416.248 470.25 330.205 470.25H160.382C150.595 470.25 142.661 462.317 142.661 452.53V351.374H337.589C353.901 351.374 367.124 338.151 367.124 321.839V158.661H468.279Z" fill="white"/>
<path d="M43.7207 348.421C33.9338 348.421 26 340.487 26 330.7L26 176.382C26 166.595 33.9338 158.661 43.7207 158.661H142.661L142.661 348.421H43.7207Z" fill="white"/>
<path d="M142.661 59.7207C142.661 49.9338 150.595 42 160.382 42H349.403C359.19 42 367.124 49.9338 367.124 59.7207V158.661H142.661V59.7207Z" fill="white"/>
</svg>
